HIERARCHY
ROOT Hips
{
	OFFSET 56.877701 -32.693596 43.373703
	CHANNELS 6 Xposition Yposition Zposition Zrotation Xrotation Yrotation
	JOINT Chest
	{
		OFFSET -0.779999 1.005800 5.403099
		CHANNELS 6 Xposition Yposition Zposition Zrotation Xrotation Yrotation
		JOINT Chest2
		{
			OFFSET 0.000000 0.000000 4.236801
			CHANNELS 6 Xposition Yposition Zposition Zrotation Xrotation Yrotation
			JOINT Neck
			{
				OFFSET 0.000000 0.000000 9.874401
				CHANNELS 6 Xposition Yposition Zposition Zrotation Xrotation Yrotation
				JOINT Head
				{
					OFFSET 0.000000 0.000002 2.173893
					CHANNELS 6 Xposition Yposition Zposition Zrotation Xrotation Yrotation
					End Site
					{
						OFFSET 0.000000 0.000000 6.508102
					}
				}
			}
			JOINT LeftCollar
			{
				OFFSET 2.681599 -0.377600 5.432499
				CHANNELS 6 Xposition Yposition Zposition Zrotation Xrotation Yrotation
				JOINT LeftShoulder
				{
					OFFSET 5.161499 0.000000 0.000000
					CHANNELS 6 Xposition Yposition Zposition Zrotation Xrotation Yrotation
					JOINT LeftElbow
					{
						OFFSET 0.000000 0.000000 -10.869099
						CHANNELS 6 Xposition Yposition Zposition Zrotation Xrotation Yrotation
						JOINT LeftWrist
						{
							OFFSET 0.000000 0.000000 -13.344799
							CHANNELS 6 Xposition Yposition Zposition Zrotation Xrotation Yrotation
							End Site
							{
								OFFSET 0.000000 0.000000 -2.173901
							}
						}
					}
				}
			}
			JOINT RightCollar
			{
				OFFSET -2.381901 -1.419600 6.136600
				CHANNELS 6 Xposition Yposition Zposition Zrotation Xrotation Yrotation
				JOINT RightShoulder
				{
					OFFSET -4.550499 0.000000 0.000000
					CHANNELS 6 Xposition Yposition Zposition Zrotation Xrotation Yrotation
					JOINT RightElbow
					{
						OFFSET 0.000000 0.000000 -11.106499
						CHANNELS 6 Xposition Yposition Zposition Zrotation Xrotation Yrotation
						JOINT RightWrist
						{
							OFFSET 0.000000 0.000000 -12.874298
							CHANNELS 6 Xposition Yposition Zposition Zrotation Xrotation Yrotation
							End Site
							{
								OFFSET 0.000000 0.000000 -2.173901
							}
						}
					}
				}
			}
		}
	}
	JOINT LeftHip
	{
		OFFSET 2.431900 0.469601 -2.489399
		CHANNELS 6 Xposition Yposition Zposition Zrotation Xrotation Yrotation
		JOINT LeftKnee
		{
			OFFSET 0.000000 -0.000004 -18.200201
			CHANNELS 6 Xposition Yposition Zposition Zrotation Xrotation Yrotation
			JOINT LeftAnkle
			{
				OFFSET 0.000000 0.000000 -16.279900
				CHANNELS 6 Xposition Yposition Zposition Zrotation Xrotation Yrotation
				End Site
				{
					OFFSET 0.000000 -8.394100 0.000000
				}
			}
		}
	}
	JOINT RightHip
	{
		OFFSET -1.987999 -0.073502 -2.713001
		CHANNELS 6 Xposition Yposition Zposition Zrotation Xrotation Yrotation
		JOINT RightKnee
		{
			OFFSET 0.000000 -0.000004 -19.547802
			CHANNELS 6 Xposition Yposition Zposition Zrotation Xrotation Yrotation
			JOINT RightAnkle
			{
				OFFSET 0.000000 0.000000 -14.881199
				CHANNELS 6 Xposition Yposition Zposition Zrotation Xrotation Yrotation
				End Site
				{
					OFFSET 0.000000 -7.922699 0.000000
				}
			}
		}
	}
}
MOTION
Frames: 6
Frame Time: 0.041667
50.097103 -33.591896 38.518906 -181.160960 26.063756 -22.236328 -0.779999 1.005802 5.403097 10.109633 -27.407965 -22.667458 0.000005 -0.000000 4.236803 -2.676948 -0.881354 0.198832 0.000003 0.000009 9.874413 71.601215 -8.791812 12.992611 0.000003 0.000006 2.173887 6.121752 -3.680097 10.248585 2.681600 -0.377596 5.432508 -0.660592 5.441379 2.783282 5.161503 0.000016 -0.000003 183.144897 -211.906441 93.514299 0.000002 0.000006 -10.869101 -28.945286 0.431316 1.421547 0.000002 0.000009 -13.344795 -26.739528 1.419208 -6.625677 -2.381900 -1.419596 6.136598 29.938440 17.977123 -5.187035 -4.550501 0.000004 -0.000003 -140.695791 -204.192904 -189.850599 0.000005 -0.000009 -11.106489 86.566371 -64.417857 49.098887 0.000006 -0.000004 -12.874297 -366.243131 0.045719 -13.218946 2.431899 0.469607 -2.489405 26.936439 -39.372359 39.661877 -0.000002 -0.000006 -18.200203 -43.397369 51.366444 39.230407 0.000002 -0.000009 -16.279898 37.561171 12.950986 -2.228469 -1.988003 -0.073498 -2.713002 -160.839917 3.741213 -79.742889 0.000003 -0.000002 -19.547806 -166.173161 163.332882 196.924572 -0.000005 0.000001 -14.881196 199.371624 83.736562 -97.745840
50.073196 -33.590698 38.517502 -180.923692 25.785617 -22.315126 -0.779995 1.005796 5.403092 9.916969 -26.879180 -22.759432 0.000003 -0.000003 4.236804 -2.442852 -0.836149 0.220135 0.000009 0.000010 9.874401 71.740127 -8.998790 13.214952 0.000004 -0.000000 2.173893 6.055377 -3.690954 10.245320 2.681600 -0.377594 5.432503 -0.667377 4.964797 2.727570 5.161502 0.000003 -0.000002 183.303740 -211.924992 93.500440 0.000001 0.000011 -10.869091 -29.585224 0.412378 1.424320 0.000005 -0.000002 -13.344790 -26.936473 1.389227 -6.858919 -2.381895 -1.419594 6.136600 29.941620 17.848285 -5.174080 -4.550498 0.000004 -0.000005 -140.647529 -204.354547 -189.789688 0.000012 -0.000001 -11.106488 86.553489 -64.330178 49.148040 0.000008 -0.000003 -12.874296 -366.303291 0.009668 -13.208869 2.431901 0.469597 -2.489405 29.449754 -37.517382 41.245624 -0.000010 -0.000006 -18.200205 -46.158576 51.364751 39.385838 0.000009 0.000000 -16.279902 37.484375 13.026848 -2.399863 -1.987998 -0.073505 -2.713005 -161.130159 3.747422 -79.729563 0.000000 -0.000001 -19.547806 -165.441457 163.078211 197.079945 0.000001 -0.000002 -14.881195 199.226892 84.113015 -97.456260
50.049896 -33.589294 38.518303 -180.556829 25.727272 -22.410368 -0.780002 1.005798 5.403094 9.696429 -26.631247 -22.768453 0.000005 -0.000003 4.236794 -2.086542 -0.880442 0.243076 0.000001 0.000005 9.874399 71.630161 -9.278077 13.293829 0.000002 0.000005 2.173892 6.074782 -3.687845 10.220982 2.681602 -0.377595 5.432502 -0.934454 4.649289 2.576194 5.161514 0.000005 0.000002 183.649785 -211.886880 93.468045 -0.000004 0.000006 -10.869095 -29.829711 0.324668 1.482790 0.000001 0.000005 -13.344801 -27.644772 1.094579 -7.029589 -2.381900 -1.419594 6.136596 29.966171 17.863397 -5.299182 -4.550501 0.000002 -0.000007 -140.827176 -204.492968 -189.674982 0.000003 0.000003 -11.106495 86.929108 -64.150154 49.452537 0.000006 -0.000006 -12.874296 -366.391865 -0.049563 -13.224169 2.431905 0.469603 -2.489395 29.093324 -37.597162 41.225888 0.000006 -0.000003 -18.200211 -44.963911 51.713982 38.633135 -0.000005 -0.000006 -16.279900 37.016736 13.179528 -3.097555 -1.987995 -0.073501 -2.712994 -161.446821 4.048511 -79.748285 -0.000001 -0.000001 -19.547802 -164.301252 162.620452 197.250973 -0.000005 -0.000002 -14.881191 197.975861 84.787947 -96.264775
50.036797 -33.596897 38.532402 -180.155310 25.739561 -22.268696 -0.779997 1.005802 5.403089 9.372456 -26.456852 -23.074384 0.000004 -0.000005 4.236801 -1.721795 -0.893158 0.251144 0.000008 0.000008 9.874399 71.621541 -9.489230 13.426187 -0.000002 0.000006 2.173902 5.958941 -3.710723 10.150941 2.681607 -0.377596 5.432503 -1.144762 4.239886 2.401116 5.161500 0.000001 -0.000002 183.891492 -212.043701 93.589417 -0.000004 0.000012 -10.869100 -29.880821 0.330711 1.495954 -0.000006 0.000006 -13.344802 -28.388541 1.144442 -6.951194 -2.381886 -1.419592 6.136600 29.722446 17.777842 -5.033326 -4.550493 -0.000004 -0.000007 -140.025066 -204.445894 -190.113411 0.000010 0.000001 -11.106505 86.457805 -63.975083 49.428942 0.000008 -0.000001 -12.874300 -366.519617 -0.079334 -13.225578 2.431901 0.469606 -2.489397 28.607093 -37.882866 40.950946 -0.000000 -0.000007 -18.200203 -43.671833 52.054951 37.834002 0.000002 -0.000007 -16.279898 36.509110 13.360180 -3.848158 -1.987991 -0.073506 -2.713008 -161.544875 4.072518 -79.510239 0.000000 -0.000003 -19.547802 -162.300745 161.748483 197.345229 -0.000003 -0.000001 -14.881192 192.021206 86.120373 -91.243083
50.029297 -33.609394 38.547298 -179.535976 26.128059 -22.083610 -0.779997 1.005810 5.403095 8.929102 -26.820524 -23.553822 0.000010 -0.000002 4.236795 -1.356592 -0.787766 0.305601 0.000008 0.000008 9.874396 71.680076 -9.570585 13.524026 -0.000003 0.000000 2.173891 6.010115 -3.714972 10.219222 2.681608 -0.377600 5.432495 -1.305238 3.810990 2.111299 5.161501 0.000003 0.000000 184.091671 -211.868875 93.783593 -0.000002 0.000003 -10.869104 -30.428571 0.244639 1.564536 -0.000003 0.000005 -13.344804 -28.736508 1.248846 -6.990173 -2.381894 -1.419598 6.136592 29.560103 17.617921 -4.603591 -4.550499 -0.000002 -0.000022 -139.789466 -204.429201 -190.481122 0.000011 0.000002 -11.106498 86.418798 -63.960828 49.149857 -0.000008 0.000004 -12.874300 -366.812249 -0.066100 -13.242256 2.431900 0.469612 -2.489401 28.175872 -38.648076 40.736474 0.000000 -0.000010 -18.200203 -43.523540 52.015821 37.858526 -0.000002 -0.000005 -16.279896 36.412346 13.380500 -3.948256 -1.988001 -0.073494 -2.713006 -161.550230 4.401493 -79.269673 0.000003 0.000000 -19.547806 -159.477773 160.612909 197.433257 -0.000005 -0.000001 -14.881196 170.893792 87.639052 -71.885897
50.022797 -33.623695 38.548004 -178.875988 26.372405 -21.916615 -0.779997 1.005800 5.403096 8.410446 -27.011279 -23.990066 0.000018 -0.000002 4.236799 -1.017229 -0.720356 0.350838 0.000009 0.000003 9.874397 71.608598 -9.727890 13.631207 -0.000003 0.000009 2.173892 5.913086 -3.706835 10.015789 2.681605 -0.377603 5.432508 -1.401718 3.350523 1.867835 5.161498 0.000008 -0.000001 184.405982 -212.088671 93.857161 -0.000005 0.000011 -10.869095 -30.894902 0.123945 1.605274 -0.000004 0.000007 -13.344804 -28.880208 1.287824 -6.920821 -2.381896 -1.419598 6.136599 29.377518 17.450192 -4.214759 -4.550493 -0.000002 -0.000007 -138.931389 -204.353973 -191.104854 0.000002 -0.000013 -11.106501 86.246732 -63.785518 49.383938 -0.000003 0.000000 -12.874299 -366.975682 -0.091741 -13.280902 2.431896 0.469603 -2.489401 27.546964 -39.246250 40.371110 0.000004 -0.000002 -18.200203 -43.574005 51.760482 37.994607 0.000000 -0.000004 -16.279900 36.455592 13.408965 -3.947268 -1.987988 -0.073499 -2.713003 -161.915221 5.239164 -79.037098 -0.000005 0.000000 -19.547802 -160.572830 161.412642 197.926369 -0.000004 0.000011 -14.881194 173.744344 87.202740 -73.410265
